<svg id="Layer_1" data-name="Layer 1" xmlns="http://www.w3.org/2000/svg" xmlns:xlink="http://www.w3.org/1999/xlink" viewBox="0 0 258.19 53"><defs><style>.cls-1{fill:none;}.cls-2{clip-path:url(#clip-path);}.cls-3{fill:#fff;}.cls-4{clip-path:url(#clip-path-2);}.cls-5{fill:#8c54e0;}.cls-6{fill:#42f278;}.cls-7{fill:#2433bd;}.cls-8{fill:#00bed9;}.cls-9{fill:#a378e8;}.cls-10{fill:#54b22e;}.cls-11{fill:#6e61b0;}.cls-12{fill:#a68fc4;}.cls-13{fill:#007aa6;}.cls-14{fill:#00669c;}.cls-15{fill:#2e4a96;}.cls-16{fill:#268fb8;}.cls-17{fill:#1794b8;}.cls-18{fill:#43f377;}</style><clipPath id="clip-path" transform="translate(-0.03 -0.02)"><rect class="cls-1" x="0.03" y="0.02" width="258.19" height="52.99"/></clipPath><clipPath id="clip-path-2" transform="translate(-0.03 -0.02)"><rect class="cls-1" x="0.03" y="1.25" width="38.58" height="38.58"/></clipPath></defs><title>Macquarie-Telecom-RGB Col-Reverse</title><g class="cls-2"><path class="cls-3" d="M74.52,10.16A10,10,0,0,0,67.4,13.3a8.78,8.78,0,0,0-6.76-3.14,7.72,7.72,0,0,0-5.45,2V10.61H49.75V30.75h5.72V17.6a5.82,5.82,0,0,1,4.66-2.48,4.07,4.07,0,0,1,3,1.24,4.74,4.74,0,0,1,1,3.44v11h5.17V20a17.2,17.2,0,0,0-.09-2.23,6.39,6.39,0,0,1,4.89-2.65,3.93,3.93,0,0,1,3,1.24c.62.71.94,1.62.94,3.44v11h5.17V20c0-3-.57-5-1.85-6.62a8.82,8.82,0,0,0-6.86-3.22" transform="translate(-0.03 -0.02)"/><path class="cls-3" d="M124.08,26.09a5.3,5.3,0,0,1-5.54-5.46A5.38,5.38,0,0,1,124,15.12a5.82,5.82,0,0,1,4.63,2.4l3.81-3.35a10.71,10.71,0,0,0-8.44-4,10.45,10.45,0,1,0,0,20.89,10.63,10.63,0,0,0,9.1-4.51l-4.14-3.1a5.88,5.88,0,0,1-4.8,2.65" transform="translate(-0.03 -0.02)"/><path class="cls-3" d="M175,23.6a6.21,6.21,0,0,1-4.63,2.49,4.12,4.12,0,0,1-3.06-1.24,4.74,4.74,0,0,1-1-3.44V10.61h-5.18V21.2a10,10,0,0,0,2,6.62,8.42,8.42,0,0,0,6.65,3.23A7.2,7.2,0,0,0,175,29v1.73h5.17V10.61H175Z" transform="translate(-0.03 -0.02)"/><path class="cls-3" d="M217.14,12.6v-2H212V30.75h5.45V18a5.81,5.81,0,0,1,4.9-2.9,7.74,7.74,0,0,1,2,.21l.62-5a11.86,11.86,0,0,0-1.87-.16c-2.44,0-4.8.95-5.89,2.44" transform="translate(-0.03 -0.02)"/><path class="cls-3" d="M231.74,0a3.44,3.44,0,1,0,3.51,3.43A3.44,3.44,0,0,0,231.74,0" transform="translate(-0.03 -0.02)"/><rect class="cls-3" x="228.82" y="10.59" width="5.44" height="20.14"/><path class="cls-3" d="M258.22,20.46c0-5.58-3.94-10.28-9.48-10.28-6,0-9.76,4.87-9.76,10.46,0,6.29,4.51,10.42,10.51,10.42a10.89,10.89,0,0,0,8.23-3.61l-3.06-3.06a7.1,7.1,0,0,1-5,2.36A5.3,5.3,0,0,1,244.19,22h13.9a10.52,10.52,0,0,0,.13-1.58m-13.78-2.23a4.28,4.28,0,0,1,4.3-3.52,3.91,3.91,0,0,1,4,3.52Z" transform="translate(-0.03 -0.02)"/><path class="cls-3" d="M103.1,12.18a8.34,8.34,0,0,0-5.71-2c-5.46,0-9.76,4.55-9.76,10.47a10.81,10.81,0,0,0,2.61,7,9.76,9.76,0,0,0,7.42,3.39,7.52,7.52,0,0,0,5.44-2v1.73h5.72V10.61H103.1ZM98.57,26.07A5.48,5.48,0,1,1,104,20.6a5.48,5.48,0,0,1-5.47,5.47" transform="translate(-0.03 -0.02)"/><path class="cls-3" d="M156.76,20.63a10.68,10.68,0,0,0-21.35,0,10.34,10.34,0,0,0,8.69,10.25l9.73,5.87,2.93-4.84-4.5-2.72a10.26,10.26,0,0,0,4.5-8.56M146,15.12a5.48,5.48,0,1,1-5.47,5.48A5.48,5.48,0,0,1,146,15.12" transform="translate(-0.03 -0.02)"/><path class="cls-3" d="M200.27,12.18c-1.09-1.28-3.42-2-5.69-2-5.47,0-9.76,4.55-9.76,10.47a10.81,10.81,0,0,0,2.61,7,9.74,9.74,0,0,0,7.41,3.39c2,0,4.34-.62,5.43-2v1.73h5.44V10.61h-5.44Zm-4.51,13.89a5.48,5.48,0,1,1,5.48-5.47,5.47,5.47,0,0,1-5.48,5.47" transform="translate(-0.03 -0.02)"/></g><g class="cls-4"><path class="cls-5" d="M19.32,27.88A11,11,0,0,1,8.56,31.29a11,11,0,0,0,21.51,0,10.85,10.85,0,0,1-2.51.29,11,11,0,0,1-8.24-3.7" transform="translate(-0.03 -0.02)"/><path class="cls-6" d="M38.61,20.53A11,11,0,0,0,30.07,9.78a11,11,0,0,1-3.41,10.75,11,11,0,0,1,3.41,10.76,11.06,11.06,0,0,0,8.54-10.76" transform="translate(-0.03 -0.02)"/><path class="cls-7" d="M19.32,13.19a11,11,0,0,1,8.24-3.7,10.85,10.85,0,0,1,2.51.29,11,11,0,0,0-21.51,0,11,11,0,0,1,10.76,3.41" transform="translate(-0.03 -0.02)"/><path class="cls-8" d="M12,20.53A11,11,0,0,1,8.56,9.78a11,11,0,0,0,0,21.51A11,11,0,0,1,12,20.53" transform="translate(-0.03 -0.02)"/><path class="cls-9" d="M26.66,20.53a11,11,0,0,1-4.83,2.52,11.14,11.14,0,0,1-2.51,4.83,11,11,0,0,0,8.24,3.7,10.85,10.85,0,0,0,2.51-.29,11,11,0,0,0-3.41-10.76" transform="translate(-0.03 -0.02)"/><path class="cls-10" d="M19.32,13.19A11.09,11.09,0,0,1,21.83,18a11.09,11.09,0,0,1,4.83,2.51A11,11,0,0,0,30.07,9.78a10.85,10.85,0,0,0-2.51-.29,11,11,0,0,0-8.24,3.7" transform="translate(-0.03 -0.02)"/><path class="cls-11" d="M22.11,20.53a11,11,0,0,1-.28,2.52,11,11,0,0,0,4.83-2.52A11.09,11.09,0,0,0,21.83,18a11,11,0,0,1,.28,2.51" transform="translate(-0.03 -0.02)"/><path class="cls-12" d="M16.8,23.05a11.05,11.05,0,0,0,2.52,4.83,11.14,11.14,0,0,0,2.51-4.83,11.44,11.44,0,0,1-5,0" transform="translate(-0.03 -0.02)"/><path class="cls-13" d="M12,20.53A11.14,11.14,0,0,1,16.8,18a11.05,11.05,0,0,1,2.52-4.83A11,11,0,0,0,8.56,9.78,11,11,0,0,0,12,20.53" transform="translate(-0.03 -0.02)"/><path class="cls-14" d="M16.8,18A11.14,11.14,0,0,0,12,20.53a11.05,11.05,0,0,0,4.83,2.52,11.44,11.44,0,0,1,0-5" transform="translate(-0.03 -0.02)"/><path class="cls-15" d="M21.83,18a11.44,11.44,0,0,0-5,0,11.44,11.44,0,0,0,0,5,11.44,11.44,0,0,0,5,0,11.44,11.44,0,0,0,0-5" transform="translate(-0.03 -0.02)"/><path class="cls-16" d="M21.83,18a11.09,11.09,0,0,0-2.51-4.83A11,11,0,0,0,16.8,18a11.44,11.44,0,0,1,5,0" transform="translate(-0.03 -0.02)"/><path class="cls-17" d="M19.32,27.88a11.05,11.05,0,0,1-2.52-4.83A11.05,11.05,0,0,1,12,20.53,11,11,0,0,0,8.56,31.29a11,11,0,0,0,10.76-3.41" transform="translate(-0.03 -0.02)"/></g><path class="cls-18" d="M55.42,43.82v9H53.26v-9H49.78v-2h9.11v2Z" transform="translate(-0.03 -0.02)"/><path class="cls-18" d="M60.1,52.79v-11H67v2H62.24v2.52h4.3v1.91h-4.3v2.54H67v2Z" transform="translate(-0.03 -0.02)"/><path class="cls-18" d="M68.84,52.79v-11H71v9h4.9v2Z" transform="translate(-0.03 -0.02)"/><path class="cls-18" d="M77.23,52.79v-11h6.89v2H79.37v2.52h4.3v1.91h-4.3v2.54h4.75v2Z" transform="translate(-0.03 -0.02)"/><path class="cls-18" d="M85.28,47.29a5.55,5.55,0,0,1,5.6-5.74,4.86,4.86,0,0,1,5.05,3.65l-2,.64a2.88,2.88,0,0,0-3-2.22,3.39,3.39,0,0,0-3.38,3.67,3.4,3.4,0,0,0,3.41,3.64A3.06,3.06,0,0,0,94,48.68l2,.6A5,5,0,0,1,90.91,53,5.49,5.49,0,0,1,85.28,47.29Z" transform="translate(-0.03 -0.02)"/><path class="cls-18" d="M102.38,41.55a5.74,5.74,0,1,1-5.65,5.74A5.55,5.55,0,0,1,102.38,41.55Zm0,9.39a3.39,3.39,0,0,0,3.44-3.66,3.44,3.44,0,1,0-6.87,0A3.39,3.39,0,0,0,102.38,50.94Z" transform="translate(-0.03 -0.02)"/><path class="cls-18" d="M119.77,52.79V45.08l-3.16,7.71h-1.79l-3.16-7.65v7.65h-2v-11h2.82l3.31,7.94L119,41.79h2.92v11Z" transform="translate(-0.03 -0.02)"/><rect class="cls-1" width="258.19" height="52.99"/></svg>